<?xml version="1.0" encoding="UTF-8"?>
<svg version="1.1" xmlns="http://www.w3.org/2000/svg" width="1136" height="224">
<path d="M0 0 C3.38814736 1.12938245 3.74794896 1.68975265 5.64453125 4.55078125 C6.14936035 5.30190186 6.65418945 6.05302246 7.17431641 6.8269043 C7.98521729 8.05727417 7.98521729 8.05727417 8.8125 9.3125 C9.98196254 11.05543305 11.15257333 12.79759609 12.32421875 14.5390625 C13.23179932 15.89306152 13.23179932 15.89306152 14.15771484 17.27441406 C17.09281307 21.61677248 20.10884865 25.90123651 23.125 30.1875 C24.28673992 31.84615697 25.44820125 33.50500912 26.609375 35.1640625 C28.29735341 37.57421725 29.9876703 39.9825484 31.68554688 42.38574219 C33.25478732 44.60712239 34.81562013 46.83419181 36.375 49.0625 C37.08100342 50.05382935 37.08100342 50.05382935 37.80126953 51.06518555 C41 55.65902936 41 55.65902936 41 59 C39.68 59.33 38.36 59.66 37 60 C37 60.66 37 61.32 37 62 C37.825 62.20625 38.65 62.4125 39.5 62.625 C48.01220174 65.96907925 52.87077495 71.91844944 57.8125 79.375 C59.01822349 81.1523476 60.22395274 82.92969129 61.4296875 84.70703125 C62.02362305 85.59213379 62.61755859 86.47723633 63.22949219 87.38916016 C64.91359973 89.87259177 66.63681137 92.32153059 68.3828125 94.76171875 C68.89996826 95.4902002 69.41712402 96.21868164 69.94995117 96.96923828 C70.92275509 98.33815685 71.90184984 99.70263216 72.88793945 101.06201172 C74.00480424 102.65512769 75.01399901 104.3227381 76 106 C75 109 75 109 73 111 C73.71285156 111.40089844 74.42570313 111.80179687 75.16015625 112.21484375 C76.11792969 112.78332031 77.07570312 113.35179688 78.0625 113.9375 C79.47208984 114.75541016 79.47208984 114.75541016 80.91015625 115.58984375 C88.56589984 121.56151732 93.66898321 130.70397752 99.125 138.625 C100.50221487 140.61745665 101.87980993 142.60965056 103.2578125 144.6015625 C103.89750977 145.53258789 104.53720703 146.46361328 105.19628906 147.42285156 C106.76670942 149.66667361 108.39707936 151.84418042 110.0546875 154.0234375 C110.69664062 155.00570312 111.33859375 155.98796875 112 157 C110.77535463 160.67393612 109.89302163 160.92955856 106.6015625 162.79296875 C105.66143311 163.33228027 104.72130371 163.8715918 103.75268555 164.42724609 C102.72054932 165.00812988 101.68841309 165.58901367 100.625 166.1875 C98.4147666 167.45338358 96.20515359 168.72035083 93.99609375 169.98828125 C93.42166031 170.31650879 92.84722687 170.64473633 92.25538635 170.98291016 C86.02534973 174.54488012 79.85553843 178.20690844 73.6875 181.875 C71.4167126 183.22273365 69.14587891 184.57038929 66.875 185.91796875 C65.74320313 186.59005371 64.61140625 187.26213867 63.4453125 187.95458984 C57.69480968 191.36910392 51.94098406 194.77801277 46.1875 198.1875 C45.07487793 198.84709717 43.96225586 199.50669434 42.81591797 200.1862793 C37.44560462 203.36925699 32.07309453 206.548405 26.6953125 209.71875 C25.70120361 210.30503174 24.70709473 210.89131348 23.68286133 211.49536133 C21.83949554 212.58206442 19.99562557 213.66791299 18.15112305 214.75268555 C17.32394775 215.240354 16.49677246 215.72802246 15.64453125 216.23046875 C14.85900879 216.6898584 14.07348633 217.14924805 13.26416016 217.62255859 C11.75683702 218.53956497 10.27598834 219.50158904 8.82568359 220.50634766 C3.76244404 223.98844782 3.76244404 223.98844782 -0.09375 224.046875 C-3.50609296 222.8176977 -6.45970339 221.19213068 -9.5 219.25 C-10.83782724 218.42202162 -12.17641552 217.59527206 -13.515625 216.76953125 C-14.23685547 216.32174316 -14.95808594 215.87395508 -15.70117188 215.41259766 C-19.8498635 212.86328481 -24.05311969 210.40636424 -28.25 207.9375 C-30.1473253 206.8180301 -32.04445474 205.69822818 -33.94140625 204.578125 C-35.41697998 203.70704102 -35.41697998 203.70704102 -36.92236328 202.81835938 C-43.48374554 198.94169945 -50.03903142 195.05473841 -56.59399414 191.16723633 C-62.44449609 187.69782509 -68.29758563 184.23295444 -74.15625 180.77734375 C-86.20094603 173.66897653 -98.2034269 166.51512161 -110 159 C-108.64001296 155.2353067 -106.9247769 152.20497838 -104.62109375 148.9375 C-103.95174805 147.98166016 -103.28240234 147.02582031 -102.59277344 146.04101562 C-101.52591309 144.53571289 -101.52591309 144.53571289 -100.4375 143 C-94.74002438 135.02975558 -94.74002438 135.02975558 -89.36328125 126.84375 C-84.4349232 119.04583042 -79.38150976 114.90002569 -71 111 C-72.32 109.68 -73.64 108.36 -75 107 C-71.34470608 101.65879501 -67.67587792 96.32705773 -64 91 C-63.39591309 90.1234375 -62.79182617 89.246875 -62.16943359 88.34375 C-60.30510354 85.64258171 -58.4345644 82.94581223 -56.5625 80.25 C-55.97194824 79.3930957 -55.38139648 78.53619141 -54.77294922 77.65332031 C-54.20979004 76.84475586 -53.64663086 76.03619141 -53.06640625 75.203125 C-52.57084229 74.48801758 -52.07527832 73.77291016 -51.56469727 73.03613281 C-48.45537549 68.98998777 -45.15237384 66.29874275 -40.75 63.75 C-39.41195312 62.96882813 -39.41195312 62.96882813 -38.046875 62.171875 C-37.37140625 61.78515625 -36.6959375 61.3984375 -36 61 C-37.32 59.68 -38.64 58.36 -40 57 C-32.35698612 45.83184095 -24.62758163 34.72658192 -16.85546875 23.64794922 C-14.91095742 20.87292686 -12.97063132 18.09501593 -11.03125 15.31640625 C-10.38776611 14.39504883 -9.74428223 13.47369141 -9.08129883 12.52441406 C-7.83821748 10.74432542 -6.59584376 8.96374237 -5.35424805 7.18261719 C-4.79777588 6.38629883 -4.24130371 5.58998047 -3.66796875 4.76953125 C-3.17578857 4.06417236 -2.6836084 3.35881348 -2.17651367 2.63208008 C-1 1 -1 1 0 0 Z " fill="#B3193A" transform="translate(110,0)"/>
<path d="M0 0 C9.9 0 19.8 0 30 0 C37.29284826 15.06654365 44.51972383 30.14720669 51.50854492 45.35644531 C54.86677524 52.64403722 58.36799276 59.84487314 62 67 C72.90099111 44.77229246 83.70880535 22.51779876 94 0 C98.1117256 -0.02465746 102.22342278 -0.04283959 106.33520508 -0.05493164 C107.73495228 -0.0599708 109.1346942 -0.06680216 110.53442383 -0.07543945 C112.54245777 -0.0875232 114.55052957 -0.09269807 116.55859375 -0.09765625 C118.37315063 -0.10551147 118.37315063 -0.10551147 120.22436523 -0.11352539 C123 0 123 0 124 1 C124.09554399 2.42946471 124.12188438 3.86362665 124.12025452 5.29627991 C124.12231651 6.68667732 124.12231651 6.68667732 124.12442017 8.10516357 C124.11902725 9.64264252 124.11902725 9.64264252 124.11352539 11.21118164 C124.11367142 12.28422043 124.11381744 13.35725922 124.1139679 14.46281433 C124.11326824 18.02861516 124.10547338 21.59436449 124.09765625 25.16015625 C124.09579226 27.62495393 124.09436827 30.08975199 124.09336853 32.55455017 C124.08954187 39.05653905 124.07971032 45.55850575 124.06866455 52.06048584 C124.05791748 58.68940817 124.05387159 65.31833693 124.04882812 71.94726562 C124.03808819 84.96485352 124.02101 97.98242492 124 111 C117.4 111 110.8 111 104 111 C103.67 84.6 103.34 58.2 103 31 C91.45 54.1 79.9 77.2 68 101 C64.04 101 60.08 101 56 101 C44.45 77.9 32.9 54.8 21 31 C20.67 57.4 20.34 83.8 20 111 C13.4 111 6.8 111 0 111 C0 74.37 0 37.74 0 0 Z " fill="#000000" transform="translate(304,57)"/>
<path d="M0 0 C19 0 19 0 23.29296875 3.48828125 C24.23922132 4.96495465 25.14256093 6.4700469 26 8 C27.04000224 9.36205486 28.09877455 10.70998163 29.17578125 12.04296875 C30.22415873 13.4223521 31.26966849 14.80391907 32.3125 16.1875 C33.45035598 17.68632308 34.58837842 19.18501981 35.7265625 20.68359375 C36.28118164 21.41562012 36.83580078 22.14764648 37.40722656 22.90185547 C39.65401285 25.86152459 41.91903064 28.80693679 44.1875 31.75 C44.98542969 32.78640625 45.78335938 33.8228125 46.60546875 34.890625 C47.39566406 35.91671875 48.18585937 36.9428125 49 38 C50.66695292 40.16644651 52.33347413 42.33322497 54 44.5 C54.83332547 45.58333938 55.6666588 46.66667272 56.5 47.75 C59 51 59 51 61.5 54.25 C61.91314453 54.78705566 62.32628906 55.32411133 62.75195312 55.87744141 C63.57890209 56.95253977 64.40572658 58.0277339 65.23242188 59.10302734 C67.41238471 61.93818438 69.59496967 64.77127341 71.78125 67.6015625 C72.23628906 68.19130859 72.69132813 68.78105469 73.16015625 69.38867188 C74.03175546 70.51819329 74.90411121 71.64713146 75.77734375 72.77539062 C77.60231357 75.14186788 79.34117596 77.51176394 81 80 C81.33 53.6 81.66 27.2 82 0 C87.94 0 93.88 0 100 0 C101 1 101 1 101.12304783 2.8409586 C101.12212604 3.65121463 101.12120424 4.46147066 101.12025452 5.29627991 C101.12231651 6.68667732 101.12231651 6.68667732 101.12442017 8.10516357 C101.11902725 9.64264252 101.11902725 9.64264252 101.11352539 11.21118164 C101.11367142 12.28422043 101.11381744 13.35725922 101.1139679 14.46281433 C101.11326824 18.02861516 101.10547338 21.59436449 101.09765625 25.16015625 C101.09579226 27.62495393 101.09436827 30.08975199 101.09336853 32.55455017 C101.08954187 39.05653905 101.07971032 45.55850575 101.06866455 52.06048584 C101.05791748 58.68940817 101.05387159 65.31833693 101.04882812 71.94726562 C101.03808819 84.96485324 101.02120097 97.98242544 101 111 C97.63750445 111.19019563 94.27640281 111.30468643 90.91015625 111.40625 C89.96354126 111.46071289 89.01692627 111.51517578 88.04162598 111.57128906 C81.0888565 111.72851629 81.0888565 111.72851629 77.91081524 109.6021986 C75.07096419 106.8161692 72.68429705 103.7711998 70.67578125 100.33203125 C68.07602826 96.06721428 65.16406524 92.14621713 62.125 88.1875 C61.1247336 86.84752358 60.12605848 85.50635796 59.12890625 84.1640625 C55.83011702 79.75241609 52.45230635 75.40440467 49.0625 71.0625 C44.39391893 65.07975205 39.7405481 59.08629661 35.125 53.0625 C34.62621338 52.4135376 34.12742676 51.7645752 33.61352539 51.09594727 C29.30616931 45.46478051 25.17414233 39.7394457 21 34 C20.67 59.41 20.34 84.82 20 111 C13.4 111 6.8 111 0 111 C0 74.37 0 37.74 0 0 Z " fill="#000000" transform="translate(905,57)"/>
<path d="M0 0 C3.45887458 0.38140749 6.1596999 2.08963944 9.12890625 3.81640625 C10.15000488 4.40752197 11.17110352 4.9986377 12.22314453 5.60766602 C13.32513184 6.25276123 14.42711914 6.89785645 15.5625 7.5625 C16.724922 8.23850201 17.88752296 8.91419638 19.05029297 9.58959961 C28.39090724 15.02418664 37.68817042 20.53257503 46.97680664 26.05541992 C55.81392473 31.30864945 64.68480593 36.50041547 73.57666016 41.66040039 C74.5104248 42.20301514 75.44418945 42.74562988 76.40625 43.3046875 C77.22416016 43.77890137 78.04207031 44.25311523 78.88476562 44.74169922 C80.62219727 45.77525447 82.31791918 46.87861278 84 48 C84.36076355 50.40444946 84.36076355 50.40444946 84.34057617 53.45947266 C84.34034958 54.60050446 84.34012299 55.74153625 84.33988953 56.91714478 C84.32440567 58.15362762 84.30892181 59.39011047 84.29296875 60.6640625 C84.28872391 61.92640717 84.28447906 63.18875183 84.28010559 64.48934937 C84.26613137 67.84661351 84.23917302 71.20326932 84.20599365 74.56036377 C84.17531352 77.98550148 84.1616047 81.41070201 84.14648438 84.8359375 C84.11334641 91.5574605 84.06309539 98.27869511 84 105 C80.37710275 103.58402178 77.07353104 101.99882788 73.703125 100.05078125 C72.16144653 99.16156982 72.16144653 99.16156982 70.58862305 98.25439453 C68.93600464 97.29315674 68.93600464 97.29315674 67.25 96.3125 C66.08311733 95.63650742 64.91620602 94.96056427 63.74926758 94.28466797 C54.9848598 89.19801888 46.28743455 84.00299924 37.61035156 78.76879883 C30.21988679 74.31549615 22.79266525 69.92994831 15.34280396 65.57714844 C11.10023506 63.09729894 6.86188315 60.61024569 2.62304688 58.12402344 C0.18289935 56.6928243 -2.25869457 55.26413314 -4.70117188 53.83691406 C-8.22388885 51.77708954 -11.73723131 49.70174397 -15.25 47.625 C-16.8577832 46.68817383 -16.8577832 46.68817383 -18.49804688 45.73242188 C-19.47322266 45.15298828 -20.44839844 44.57355469 -21.453125 43.9765625 C-22.31067383 43.47205566 -23.16822266 42.96754883 -24.05175781 42.44775391 C-26 41 -26 41 -27 38 C-25.56679287 35.56200679 -24.09210201 33.34465199 -22.4375 31.0625 C-21.95095947 30.37462402 -21.46441895 29.68674805 -20.96313477 28.97802734 C-19.89589657 27.46946766 -18.8246418 25.96374383 -17.75 24.46044922 C-15.88748719 21.84181025 -14.0507613 19.20646539 -12.21875 16.56640625 C-10.9584736 14.7525067 -9.69805897 12.93870319 -8.4375 11.125 C-7.830271 10.25109619 -7.22304199 9.37719238 -6.59741211 8.47680664 C-6.02772705 7.66203857 -5.45804199 6.84727051 -4.87109375 6.0078125 C-4.36505615 5.28223145 -3.85901855 4.55665039 -3.33764648 3.80908203 C-2 2 -2 2 0 0 Z " fill="#A61443" transform="translate(27,119)"/>
<path d="M0 0 C2.51725992 1.14984369 3.40948313 2.46515833 4.95483398 4.75366211 C5.51291748 5.56649658 6.07100098 6.37933105 6.64599609 7.21679688 C7.2326001 8.0952124 7.8192041 8.97362793 8.42358398 9.87866211 C9.66363024 11.70084804 10.90453203 13.52245203 12.14624023 15.34350586 C12.77159668 16.26631348 13.39695312 17.18912109 14.04125977 18.13989258 C15.83645431 20.751889 17.6761128 23.32270096 19.54467773 25.88256836 C20.10413086 26.6527832 20.66358398 27.42299805 21.23999023 28.21655273 C22.30455589 29.67744465 23.37597951 31.13336847 24.45483398 32.58374023 C25.68965884 34.29466241 26.81810016 36.08145521 27.92358398 37.87866211 C26.69893861 41.55259823 25.81660562 41.80822067 22.52514648 43.67163086 C21.58501709 44.21094238 20.6448877 44.75025391 19.67626953 45.3059082 C18.6441333 45.88679199 17.61199707 46.46767578 16.54858398 47.06616211 C14.33835059 48.33204569 12.12873757 49.59901294 9.91967773 50.86694336 C9.05802757 51.35928467 9.05802757 51.35928467 8.17897034 51.86157227 C1.94893372 55.42354223 -4.22087758 59.08557054 -10.38891602 62.75366211 C-12.65970342 64.10139576 -14.93053711 65.4490514 -17.20141602 66.79663086 C-18.33321289 67.46871582 -19.46500977 68.14080078 -20.63110352 68.83325195 C-26.38160634 72.24776603 -32.13543196 75.65667488 -37.88891602 79.06616211 C-39.00153809 79.72575928 -40.11416016 80.38535645 -41.26049805 81.06494141 C-46.63081139 84.2479191 -52.00332149 87.42706711 -57.38110352 90.59741211 C-58.3752124 91.18369385 -59.36932129 91.76997559 -60.39355469 92.37402344 C-62.23692048 93.46072653 -64.08079045 94.5465751 -65.92529297 95.63134766 C-70.50318603 98.33028471 -75.02515918 101.08470743 -79.47607422 103.98925781 C-81.07641602 104.87866211 -81.07641602 104.87866211 -83.07641602 104.87866211 C-83.28539453 97.55098752 -83.44507762 90.22395973 -83.54272556 82.89390373 C-83.58960667 79.48963717 -83.65312182 76.08741551 -83.75537109 72.68432617 C-83.8723103 68.76758756 -83.91561632 64.85166237 -83.95532227 60.93334961 C-84.00177383 59.7175119 -84.0482254 58.50167419 -84.09608459 57.24899292 C-84.1010091 48.98523654 -84.1010091 48.98523654 -81.18731689 45.83840942 C-78.88131569 44.27567344 -76.60184213 43.04726311 -74.07641602 41.87866211 C-73.18390137 41.3438623 -72.29138672 40.8090625 -71.37182617 40.25805664 C-70.62723145 39.84668457 -69.88263672 39.4353125 -69.11547852 39.01147461 C-68.24592529 38.52678711 -67.37637207 38.04209961 -66.48046875 37.54272461 C-65.56338135 37.03483398 -64.64629395 36.52694336 -63.70141602 36.00366211 C-54.90057694 31.07939166 -46.18307448 26.03113903 -37.51391602 20.87866211 C-36.38993408 20.2124585 -35.26595215 19.54625488 -34.10791016 18.85986328 C-28.59050917 15.58414286 -23.09044891 12.28344374 -17.61547852 8.93725586 C-16.60557861 8.3255957 -15.59567871 7.71393555 -14.55517578 7.08374023 C-12.65609125 5.93268356 -10.76298084 4.77169325 -8.87695312 3.59936523 C-8.03656494 3.09211914 -7.19617676 2.58487305 -6.33032227 2.06225586 C-5.23699585 1.39021118 -5.23699585 1.39021118 -4.12158203 0.70458984 C-2.07641602 -0.12133789 -2.07641602 -0.12133789 0 0 Z " fill="#C41A5C" transform="translate(194.076416015625,119.121337890625)"/>
<path d="M0 0 C7.26 0 14.52 0 22 0 C33.76139319 26.40788806 45.48635068 52.83078644 57.07183838 79.31639099 C59.15184361 84.06985833 61.24359686 88.81789975 63.34375 93.5625 C64.27087075 95.66665018 65.19795769 97.77081526 66.125 99.875 C66.53314941 100.79007324 66.94129883 101.70514648 67.36181641 102.64794922 C67.71937012 103.46279785 68.07692383 104.27764648 68.4453125 105.1171875 C68.74969238 105.80409668 69.05407227 106.49100586 69.36767578 107.19873047 C70 109 70 109 70 112 C44.26 112 18.52 112 -8 112 C-7 106 -7 106 -1 93 C12.86 93 26.72 93 41 93 C38.97875 88.545 36.9575 84.09 34.875 79.5 C29.9094657 68.51432562 24.97406427 57.5153775 20.11602783 46.48168945 C19.49939729 45.08264785 18.88104231 43.68436497 18.26092529 42.28686523 C17.39159421 40.32621873 16.52890357 38.36278264 15.66796875 36.3984375 C15.17578857 35.28130371 14.6836084 34.16416992 14.17651367 33.01318359 C13.12357596 30.31649191 12.45239582 27.85092226 12 25 C11.34 25 10.68 25 10 25 C9.82893738 25.54423111 9.65787476 26.08846222 9.48162842 26.64918518 C7.66100557 32.29191655 5.50261382 37.6824102 3.078125 43.08984375 C2.51220139 44.36579659 2.51220139 44.36579659 1.93484497 45.66752625 C0.71042464 48.42591909 -0.51969977 51.18172537 -1.75 53.9375 C-2.59985256 55.8486151 -3.44929508 57.7599126 -4.29833984 59.67138672 C-5.59278663 62.5852937 -6.8875979 65.4990336 -8.18405151 68.41204834 C-10.99072027 74.71935516 -13.78014951 81.03396618 -16.5546875 87.35546875 C-16.90446655 88.15176193 -17.25424561 88.94805511 -17.61462402 89.76847839 C-18.94370586 92.79438225 -20.27275383 95.82029361 -21.59802246 98.84786987 C-22.4929606 100.89168616 -23.39069566 102.93425154 -24.2890625 104.9765625 C-24.79131348 106.12205566 -25.29356445 107.26754883 -25.81103516 108.44775391 C-27 111 -27 111 -28 112 C-29.56172745 112.08685603 -31.12729344 112.10702219 -32.69140625 112.09765625 C-33.63564453 112.09443359 -34.57988281 112.09121094 -35.55273438 112.08789062 C-36.54595703 112.07951172 -37.53917969 112.07113281 -38.5625 112.0625 C-39.55958984 112.05798828 -40.55667969 112.05347656 -41.58398438 112.04882812 C-44.05604849 112.03700007 -46.52799518 112.02051849 -49 112 C-44.23442533 100.20568505 -39.20088465 88.54949807 -34.00778198 76.93756104 C-31.81932092 72.0438828 -29.63895395 67.146596 -27.45703125 62.25 C-27.00928848 61.24583038 -26.56154572 60.24166077 -26.10023499 59.20706177 C-21.18926663 48.1900438 -16.31129109 37.15850334 -11.4375 26.125 C-10.62663008 24.29052625 -9.81575776 22.45605356 -9.00488281 20.62158203 C-8.25189198 18.9170192 -7.49895915 17.21243074 -6.74609375 15.5078125 C-6.40946213 14.74621826 -6.07283051 13.98462402 -5.72599792 13.19995117 C-5.40963882 12.48315186 -5.09327972 11.76635254 -4.76733398 11.02783203 C-4.49678696 10.41521515 -4.22623993 9.80259827 -3.94749451 9.17141724 C-2.61640248 6.12089172 -1.31107752 3.05918088 0 0 Z " fill="#000000" transform="translate(1066,56)"/>
<path d="M0 0 C7.26 0 14.52 0 22 0 C31.2879108 20.59421918 40.42095869 41.25407528 49.47497559 61.95213318 C51.8756598 67.43857875 54.28532112 72.9209821 56.70153809 78.40060425 C58.29765862 82.0224938 59.88931696 85.64633343 61.48010254 89.27056885 C62.23951393 90.9980901 63.00080734 92.72478532 63.76403809 94.45062256 C64.81912263 96.83728411 65.86738242 99.22683077 66.9140625 101.6171875 C67.22874481 102.32456055 67.54342712 103.03193359 67.86764526 103.76074219 C69.14011131 106.68310717 70 108.77564949 70 112 C44.26 112 18.52 112 -8 112 C-7 107 -7 107 -1 93 C12.86 93 26.72 93 41 93 C38.958125 88.50375 36.91625 84.0075 34.8125 79.375 C30.01190551 68.76028258 25.25235146 58.12834742 20.59921265 47.44805908 C20.03725551 46.1589524 19.47382101 44.87048865 18.90884399 43.58270264 C18.11693624 41.77588761 17.33178061 39.96611784 16.546875 38.15625 C16.10182617 37.13337891 15.65677734 36.11050781 15.19824219 35.05664062 C13.8957194 31.73398673 12.9294606 28.44364614 12 25 C11.34 25 10.68 25 10 25 C9.90066162 25.67321289 9.80132324 26.34642578 9.69897461 27.04003906 C8.83594934 30.6947084 7.37403135 33.96160891 5.81640625 37.359375 C5.48902466 38.085233 5.16164307 38.811091 4.82434082 39.5589447 C3.74152419 41.95800851 2.65191059 44.35392428 1.5625 46.75 C0.01795197 50.16667165 -1.5225406 53.58516434 -3.0625 57.00390625 C-3.46242661 57.89072586 -3.86235321 58.77754547 -4.2743988 59.6912384 C-7.24331529 66.28614085 -10.16479134 72.90087062 -13.0625 79.52734375 C-13.47274918 80.46528778 -13.88299835 81.40323181 -14.30567932 82.36959839 C-15.91476118 86.05115081 -17.52239033 89.73332053 -19.12521362 93.41760254 C-20.23610312 95.97082715 -21.35027069 98.52260053 -22.46484375 101.07421875 C-22.95905823 102.21539406 -22.95905823 102.21539406 -23.46325684 103.37962341 C-24.80328182 106.44255971 -26.14031564 109.21047346 -28 112 C-30.06298828 112.34057617 -30.06298828 112.34057617 -32.5703125 112.29296875 C-33.46621094 112.28330078 -34.36210937 112.27363281 -35.28515625 112.26367188 C-36.22230469 112.23853516 -37.15945313 112.21339844 -38.125 112.1875 C-39.54232422 112.16719727 -39.54232422 112.16719727 -40.98828125 112.14648438 C-43.32608779 112.11106306 -45.66276237 112.06167271 -48 112 C-47.35441417 108.02406914 -46.12512904 104.65572961 -44.515625 100.96875 C-43.74182495 99.18827271 -43.74182495 99.18827271 -42.95239258 97.37182617 C-42.38512471 96.08113115 -41.81765463 94.79052497 -41.25 93.5 C-40.65818231 92.14505385 -40.06663425 90.7899899 -39.4753418 89.43481445 C-35.13283523 79.50128407 -30.70418814 69.60674013 -26.25146484 59.72216797 C-21.22689896 48.55195157 -16.29551767 37.34138431 -11.375 26.125 C-10.97914703 25.22292816 -10.58329407 24.32085632 -10.17544556 23.39144897 C-9.04090091 20.80547401 -7.90697737 18.21922804 -6.7734375 15.6328125 C-6.26799156 14.47989967 -6.26799156 14.47989967 -5.75233459 13.30369568 C-5.43364914 12.5758638 -5.11496368 11.84803192 -4.78662109 11.09814453 C-4.51272552 10.47279816 -4.23882996 9.84745178 -3.95663452 9.20315552 C-2.62667594 6.14022446 -1.31538003 3.06922007 0 0 Z " fill="#000000" transform="translate(491,56)"/>
<path d="M0 0 C6.27 0 12.54 0 19 0 C19 15.84 19 31.68 19 48 C36.49 48 53.98 48 72 48 C72 32.16 72 16.32 72 0 C78.27 0 84.54 0 91 0 C91 36.63 91 73.26 91 111 C84.73 111 78.46 111 72 111 C72 96.15 72 81.3 72 66 C54.51 66 37.02 66 19 66 C19 80.85 19 95.7 19 111 C12.73 111 6.46 111 0 111 C0 74.37 0 37.74 0 0 Z " fill="#000000" transform="translate(688,57)"/>
<path d="M0 0 C0.87914062 0.00563965 1.75828125 0.0112793 2.6640625 0.01708984 C9.21230932 0.13938513 15.02175867 0.79884055 21.125 3.3125 C22.10597656 3.7146875 23.08695313 4.116875 24.09765625 4.53125 C31.61120787 7.95081837 37.29663789 12.50992711 43.125 18.3125 C41.54719077 22.02295247 39.21796752 24.61156384 36.5 27.5625 C35.68273437 28.45453125 34.86546875 29.3465625 34.0234375 30.265625 C33.39695312 30.94109375 32.77046875 31.6165625 32.125 32.3125 C28.91665161 30.83680658 26.26003083 28.98848927 23.4375 26.875 C13.15086806 19.70869618 2.43794275 18.82639211 -9.8125 20.78125 C-19.30920856 23.274136 -27.40071546 29.18616569 -32.875 37.3125 C-38.19775655 46.96590167 -38.45487794 59.03569706 -35.875 69.625 C-32.07733318 80.06858375 -24.82718299 87.56479657 -14.875 92.3125 C-5.24409763 95.61547691 5.50852142 95.95019 14.84375 91.59375 C18.05730091 89.78887894 21.11540599 87.81748762 24.1171875 85.6796875 C26.05809921 84.35805502 28.00318008 83.31156319 30.125 82.3125 C31.99502288 84.04788123 33.84488092 85.7984335 35.6875 87.5625 C36.22052734 88.05363281 36.75355469 88.54476562 37.30273438 89.05078125 C41.10572696 92.73109666 41.10572696 92.73109666 41.1953125 95.43359375 C35.88478304 104.75609255 23.26258895 110.68706776 13.30078125 113.48828125 C-2.50218396 117.12036077 -18.96062965 114.21570501 -32.83984375 106.2421875 C-43.98703406 99.15504205 -52.71231288 88.20620008 -56.4375 75.375 C-59.82504801 59.40513082 -59.23498964 42.54349807 -51.1875 28.0625 C-41.93749533 13.97936789 -28.90776939 4.24708388 -12.34130859 0.72045898 C-8.22613907 0.03975731 -4.16369369 -0.02811136 0 0 Z " fill="#000000" transform="translate(624.875,54.6875)"/>
<path d="M0 0 C18.31118101 -2.0977424 18.31118101 -2.0977424 23.71875 2.12109375 C25.37983763 4.92235776 26.72589124 7.73294541 27.97265625 10.73925781 C30.07834055 15.37296423 32.8694381 19.65060715 35.5 24 C36.62041459 25.89730204 37.73894102 27.79572052 38.85546875 29.6953125 C42.49056874 35.84702018 46.21501576 41.93945122 50 48 C53.87798745 43.54715794 56.58317142 38.63241571 59.4375 33.5 C63.86091741 25.64695731 68.4343055 17.90810849 73.1875 10.25 C73.75202881 9.33927734 74.31655762 8.42855469 74.89819336 7.49023438 C78.85610697 1.14389303 78.85610697 1.14389303 80 0 C81.4887186 -0.08669432 82.981445 -0.10703494 84.47265625 -0.09765625 C85.37177734 -0.09443359 86.27089844 -0.09121094 87.19726562 -0.08789062 C88.61555664 -0.07532227 88.61555664 -0.07532227 90.0625 -0.0625 C91.4865918 -0.05573242 91.4865918 -0.05573242 92.93945312 -0.04882812 C95.29303065 -0.0370011 97.64648477 -0.02052025 100 0 C98.74364213 4.15895154 97.20822942 7.61217339 94.90234375 11.2890625 C93.9592334 12.80536255 93.9592334 12.80536255 92.99707031 14.35229492 C91.97758301 15.97228394 91.97758301 15.97228394 90.9375 17.625 C89.86273282 19.34891634 88.79037435 21.074316 87.71810913 22.79978943 C86.97044348 24.00265978 86.22208043 25.20509692 85.47305298 26.40711975 C81.55750487 32.69452334 77.70470236 39.0195679 73.86331177 45.35247803 C72.77198969 47.15125538 71.678941 48.94897452 70.58569336 50.74658203 C69.9128833 51.85501465 69.24007324 52.96344727 68.546875 54.10546875 C67.95745117 55.07637451 67.36802734 56.04728027 66.76074219 57.04760742 C66.17969727 58.02189697 65.59865234 58.99618652 65 60 C64.27941406 61.06395996 63.55882812 62.12791992 62.81640625 63.22412109 C60.26427952 67.7379727 60.39736185 72.2294235 60.390625 77.30859375 C60.37408875 78.27531509 60.35755249 79.24203644 60.34051514 80.23805237 C60.29220082 83.30460062 60.27070079 86.37065353 60.25 89.4375 C60.2218265 91.52541532 60.19189715 93.61330774 60.16015625 95.70117188 C60.08316234 100.80100547 60.04248815 105.89929707 60 111 C53.4 111 46.8 111 40 111 C40.06703125 107.98359375 40.1340625 104.9671875 40.203125 101.859375 C41.25218593 73.1080344 41.25218593 73.1080344 28.76757812 48.23486328 C25.4039407 43.98199906 22.80830469 39.22718009 20.0625 34.5625 C18.89859419 32.64076255 17.73062697 30.721479 16.55859375 28.8046875 C15.68630127 27.37721191 15.68630127 27.37721191 14.79638672 25.92089844 C12.95132575 22.92085639 11.08991822 19.93158171 9.22265625 16.9453125 C8.6186499 15.97779053 8.01464355 15.01026855 7.39233398 14.01342773 C6.23573381 12.16404978 5.07523748 10.31710139 3.91040039 8.47290039 C3.39598389 7.65039795 2.88156738 6.82789551 2.3515625 5.98046875 C1.89604004 5.25754639 1.44051758 4.53462402 0.97119141 3.78979492 C0 2 0 2 0 0 Z " fill="#000000" transform="translate(792,57)"/>
<path d="M0 0 C2.04407145 1.57647518 3.25966393 3.05697708 4.68652344 5.20727539 C5.46358643 6.36163086 5.46358643 6.36163086 6.25634766 7.53930664 C6.7992041 8.3655957 7.34206055 9.19188477 7.90136719 10.04321289 C9.05043878 11.76501304 10.20019088 13.48635921 11.35058594 15.20727539 C11.92856934 16.07642578 12.50655273 16.94557617 13.10205078 17.84106445 C14.75716129 20.29697484 16.45176371 22.71775009 18.17089844 25.12915039 C18.68450928 25.85408691 19.19812012 26.57902344 19.72729492 27.32592773 C20.70260718 28.69863689 21.68498258 30.06636062 22.67504883 31.4284668 C23.80844909 33.03905493 24.83497149 34.72387416 25.83886719 36.41821289 C24.83886719 39.41821289 24.83886719 39.41821289 22.40917969 40.89868164 C21.27222656 41.46200195 20.13527344 42.02532227 18.96386719 42.60571289 C11.32169165 46.5080394 3.95398279 50.83216786 -3.41113281 55.23071289 C-5.76119046 56.63209477 -8.11154711 58.03297484 -10.46191406 59.43383789 C-11.03544113 59.7758725 -11.6089682 60.1179071 -12.19987488 60.4703064 C-19.48054824 64.80769834 -26.82379412 69.03550833 -34.16748047 73.26489258 C-36.10116562 74.3835221 -38.02886133 75.51168336 -39.95410156 76.64477539 C-41.05367187 77.29188477 -42.15324219 77.93899414 -43.28613281 78.60571289 C-44.6821875 79.43135742 -44.6821875 79.43135742 -46.10644531 80.27368164 C-48.16113281 81.41821289 -48.16113281 81.41821289 -49.16113281 81.41821289 C-49.38955768 73.83823661 -49.54702891 66.25914859 -49.65551758 58.67651367 C-49.70074523 56.09805132 -49.76213977 53.51981936 -49.84008789 50.94213867 C-49.94943053 47.23306494 -50.00033633 43.52704298 -50.04003906 39.81665039 C-50.08649063 38.66643402 -50.1329422 37.51621765 -50.18080139 36.33114624 C-50.1857195 28.51266411 -50.1857195 28.51266411 -47.31364441 25.44474792 C-44.99680624 23.8740842 -42.68449296 22.62429589 -40.16113281 21.41821289 C-38.56821411 20.45443726 -38.56821411 20.45443726 -36.94311523 19.47119141 C-35.97736572 18.91874756 -35.01161621 18.36630371 -34.01660156 17.79711914 C-32.38174805 16.85835937 -32.38174805 16.85835937 -30.71386719 15.90063477 C-29.60333984 15.26706055 -28.4928125 14.63348633 -27.34863281 13.98071289 C-25.13362498 12.71146794 -22.91878045 11.44193797 -20.70410156 10.17211914 C-19.62306152 9.55868652 -18.54202148 8.94525391 -17.42822266 8.31323242 C-15.19746784 7.01932128 -12.98989886 5.68480748 -10.80419922 4.31616211 C-9.74249512 3.6576123 -8.68079102 2.9990625 -7.58691406 2.32055664 C-6.63856689 1.71590576 -5.69021973 1.11125488 -4.71313477 0.48828125 C-2.16113281 -0.58178711 -2.16113281 -0.58178711 0 0 Z " fill="#D82150" transform="translate(160.1611328125,69.581787109375)"/>
<path d="M0 0 C3.38814736 1.12938245 3.74794896 1.68975265 5.64453125 4.55078125 C6.4017749 5.67746216 6.4017749 5.67746216 7.17431641 6.8269043 C7.71491699 7.64715088 8.25551758 8.46739746 8.8125 9.3125 C9.98196254 11.05543305 11.15257333 12.79759609 12.32421875 14.5390625 C12.92927246 15.44172852 13.53432617 16.34439453 14.15771484 17.27441406 C17.09281307 21.61677248 20.10884865 25.90123651 23.125 30.1875 C24.28673992 31.84615697 25.44820125 33.50500912 26.609375 35.1640625 C28.29735341 37.57421725 29.9876703 39.9825484 31.68554688 42.38574219 C33.25478732 44.60712239 34.81562013 46.83419181 36.375 49.0625 C37.08100342 50.05382935 37.08100342 50.05382935 37.80126953 51.06518555 C41 55.65902936 41 55.65902936 41 59 C40.24460937 59.35449219 39.48921875 59.70898438 38.7109375 60.07421875 C29.69838976 64.43274594 21.12117195 69.37679009 12.55419922 74.55541992 C11.64814941 75.10045166 10.74209961 75.6454834 9.80859375 76.20703125 C9.00220459 76.6966333 8.19581543 77.18623535 7.36499023 77.69067383 C4.89452635 79.05839322 2.72737679 80.24182996 0 81 C-2.27319336 80.25244141 -2.27319336 80.25244141 -4.58984375 78.8515625 C-5.88051758 78.09057251 -5.88051758 78.09057251 -7.19726562 77.31420898 C-8.10154297 76.75677002 -9.00582031 76.19933105 -9.9375 75.625 C-11.82157731 74.50384361 -13.705692 73.38275003 -15.58984375 72.26171875 C-16.51007324 71.70532715 -17.43030273 71.14893555 -18.37841797 70.57568359 C-21.88488803 68.46814422 -25.4373008 66.44793288 -29 64.4375 C-32.69311769 62.33296602 -36.36273044 60.19974575 -40 58 C-36.89486536 52.32744916 -33.36416813 47.08444639 -29.625 41.8125 C-28.37487642 40.03914961 -27.12488018 38.26570945 -25.875 36.4921875 C-25.235625 35.58694336 -24.59625 34.68169922 -23.9375 33.74902344 C-21.4201008 30.17720956 -18.92012124 26.59338516 -16.41992188 23.00952148 C-11.02592791 15.28023335 -5.59973622 7.58225153 0 0 Z " fill="#C21D32" transform="translate(110,0)"/>
<path d="M0 0 C1.95870085 0.96625542 3.87973692 2.01055509 5.76953125 3.10546875 C6.89407715 3.75257812 8.01862305 4.3996875 9.17724609 5.06640625 C10.38909357 5.77327265 11.60084257 6.48030789 12.8125 7.1875 C14.06558198 7.91203974 15.31900435 8.63599107 16.57275391 9.359375 C20.38737689 11.56344038 24.19407613 13.78095841 28 16 C29.13324707 16.6595166 30.26649414 17.3190332 31.43408203 17.99853516 C33.56833408 19.24082277 35.70213992 20.48387735 37.83544922 21.7277832 C39.84283 22.898191 41.85095442 24.0673244 43.85986328 25.23510742 C48.07500907 27.68898333 52.27600559 30.15562514 56.42578125 32.71875 C57.07369629 33.11126953 57.72161133 33.50378906 58.38916016 33.90820312 C60.03152007 34.90530244 61.66286858 35.92048153 63.29296875 36.9375 C65.92343364 38.30097921 65.92343364 38.30097921 68.35498047 37.23266602 C77.4313597 33.00277505 85.97754988 27.69385818 94.5625 22.5625 C96.92987982 21.15698033 99.29902071 19.75443701 101.66796875 18.3515625 C105.35108996 16.16976924 109.03130067 13.98348233 112.70166016 11.78027344 C115.68321066 9.99075939 118.6727343 8.21533281 121.66818237 6.44918823 C123.34677982 5.45422705 125.01638627 4.44414721 126.68579102 3.43383789 C128.21417603 2.53652954 128.21417603 2.53652954 129.7734375 1.62109375 C130.66466309 1.0892749 131.55588867 0.55745605 132.47412109 0.00952148 C135.50255115 -1.20085531 136.93071389 -0.98606459 140 0 C142.67578125 1.41015625 142.67578125 1.41015625 145.3125 3.0625 C146.19550781 3.61035156 147.07851562 4.15820312 147.98828125 4.72265625 C148.65214844 5.14417969 149.31601563 5.56570312 150 6 C146.7301442 8.71667642 143.46915083 11.01262063 139.7734375 13.109375 C138.75556152 13.69082275 137.73768555 14.27227051 136.68896484 14.87133789 C135.59535645 15.49129639 134.50174805 16.11125488 133.375 16.75 C131.01925424 18.09490436 128.66570301 19.44362118 126.3125 20.79296875 C125.7084433 21.13899643 125.1043866 21.48502411 124.48202515 21.84153748 C118.07506625 25.51821528 111.72435881 29.28725538 105.375 33.0625 C103.71247192 34.04500732 103.71247192 34.04500732 102.01635742 35.04736328 C96.37387717 38.38389371 90.7580495 41.75548608 85.17578125 45.19140625 C83.01303212 46.50262279 80.85027216 47.81382145 78.6875 49.125 C77.2022583 50.05904663 77.2022583 50.05904663 75.68701172 51.01196289 C68.91620884 55.08211859 68.91620884 55.08211859 64.94921875 54.7265625 C63.97597656 54.15679687 63.00273438 53.58703125 62 53 C61.29738037 52.61021973 60.59476074 52.22043945 59.87084961 51.81884766 C57.25603331 50.34654948 54.69138955 48.80511121 52.125 47.25 C50.13974435 46.06179558 48.15405247 44.87431978 46.16796875 43.6875 C45.14622559 43.07519531 44.12448242 42.46289062 43.07177734 41.83203125 C38.21468348 38.93522372 33.32636148 36.09275206 28.4375 33.25 C26.45171038 32.09264099 24.46603645 30.93508344 22.48046875 29.77734375 C19.04668582 27.77569039 15.61269118 25.77440244 12.17822266 23.77392578 C8.85253763 21.83640929 5.52849318 19.89610099 2.20535278 17.95422363 C0.91166897 17.19884619 -0.38253338 16.44435602 -1.67727661 15.6907959 C-3.48932803 14.63600433 -5.29954023 13.57812046 -7.109375 12.51953125 C-8.15061523 11.91214111 -9.19185547 11.30475098 -10.26464844 10.67895508 C-12.62672675 9.22911462 -14.82134966 7.70895627 -17 6 C-15.11542462 4.79471335 -13.21682415 3.61133551 -11.3125 2.4375 C-10.25675781 1.77621094 -9.20101562 1.11492187 -8.11328125 0.43359375 C-4.52025718 -1.22091043 -3.69124517 -1.08506383 0 0 Z " fill="#720C2B" transform="translate(44,112)"/>
<path d="M0 0 C3.48947285 3.48947285 6.15680704 6.94275624 8.875 11 C9.85066771 12.43810747 10.82727552 13.87557746 11.8046875 15.3125 C12.3212793 16.07304687 12.83787109 16.83359375 13.37011719 17.6171875 C16.2107087 21.76999954 19.10817246 25.88278825 22 30 C23.17993935 31.68602169 24.35962844 33.37221855 25.5390625 35.05859375 C27.79668714 38.28566897 30.06351868 41.50598725 32.3359375 44.72265625 C33.34929268 46.16903664 34.36233098 47.61563912 35.375 49.0625 C35.84550781 49.72314453 36.31601563 50.38378906 36.80078125 51.06445312 C40 55.6590758 40 55.6590758 40 59 C39.24460938 59.35449219 38.48921875 59.70898438 37.7109375 60.07421875 C28.66081658 64.45091657 20.05619377 69.42117371 11.46630859 74.64331055 C10.55703613 75.19156494 9.64776367 75.73981934 8.7109375 76.3046875 C7.49349854 77.0469458 7.49349854 77.0469458 6.25146484 77.80419922 C4 79 4 79 0 80 C0 53.6 0 27.2 0 0 Z " fill="#EC2744" transform="translate(111,0)"/>
<path d="M0 0 C2.03623941 1.02192382 4.03416003 2.12188531 6 3.2734375 C7.134375 3.9334375 8.26875 4.5934375 9.4375 5.2734375 C10.62508032 5.97382215 11.81257963 6.6743442 13 7.375 C14.18712379 8.06835287 15.37462059 8.7610675 16.5625 9.453125 C25.74689429 14.81764621 25.74689429 14.81764621 28.5625 16.84619141 C30.94108525 18.28623707 30.94108525 18.28623707 33.43310547 17.40039062 C34.28018066 16.93826172 35.12725586 16.47613281 36 16 C36.95922363 15.48115234 37.91844727 14.96230469 38.90673828 14.42773438 C39.95071777 13.82251953 40.99469727 13.21730469 42.0703125 12.59375 C42.63321991 12.26838257 43.19612732 11.94301514 43.77609253 11.60778809 C44.95856244 10.92351012 46.1401191 10.23765181 47.32080078 9.55029297 C49.12468136 8.50018549 50.93120679 7.45475618 52.73828125 6.41015625 C58.94799575 2.83264128 58.94799575 2.83264128 65 -1 C69.06793028 -0.68293081 71.8953753 0.92110186 75.3125 3.0625 C76.63701172 3.88427734 76.63701172 3.88427734 77.98828125 4.72265625 C78.98408203 5.35494141 78.98408203 5.35494141 80 6 C77.53963588 8.74530263 74.85025186 10.377779 71.65234375 12.1875 C70.58008545 12.79924072 69.50782715 13.41098145 68.40307617 14.04125977 C67.25943604 14.68764404 66.1157959 15.33402832 64.9375 16 C62.57606094 17.33884631 60.21672684 18.681314 57.859375 20.02734375 C57.2732695 20.361931 56.687164 20.69651825 56.08329773 21.04124451 C52.48189541 23.11058302 48.94919563 25.26169244 45.453125 27.50390625 C44.63851807 28.02404297 43.82391113 28.54417969 42.98461914 29.08007812 C41.48688947 30.04662234 39.99847482 31.0278036 38.52124023 32.02539062 C36.51171875 33.31640625 36.51171875 33.31640625 33 35 C29.03034771 33.83834219 25.55840667 31.70774196 21.984375 29.65625 C21.41517334 29.3305603 20.84597168 29.00487061 20.25952148 28.66931152 C18.42112034 27.61613637 16.58550076 26.55822055 14.75 25.5 C13.48871028 24.77586134 12.22731661 24.05190373 10.96582031 23.328125 C1.60516779 17.95124887 -7.71998205 12.5149821 -17 7 C-6.10474503 -1.86172279 -6.10474503 -1.86172279 0 0 Z " fill="#780C26" transform="translate(79,62)"/>
<path d="M0 0 C2.67578125 1.41015625 2.67578125 1.41015625 5.3125 3.0625 C6.63701172 3.88427734 6.63701172 3.88427734 7.98828125 4.72265625 C8.98408203 5.35494141 8.98408203 5.35494141 10 6 C6.7301442 8.71667642 3.46915083 11.01262063 -0.2265625 13.109375 C-1.24451904 13.69090332 -2.26247559 14.27243164 -3.3112793 14.87158203 C-4.40480713 15.49145996 -5.49833496 16.11133789 -6.625 16.75 C-8.97869993 18.0949241 -11.33174709 19.44090813 -13.68359375 20.7890625 C-14.287444 21.13488373 -14.89129425 21.48070496 -15.51344299 21.83700562 C-21.94694515 25.52912034 -28.31659779 29.32596073 -34.6875 33.125 C-43.43530748 38.32801499 -52.21434636 43.46925851 -61.0625 48.5 C-62.52659302 49.33748779 -62.52659302 49.33748779 -64.02026367 50.19189453 C-64.91205322 50.69575684 -65.80384277 51.19961914 -66.72265625 51.71875 C-67.89453491 52.38293945 -67.89453491 52.38293945 -69.09008789 53.06054688 C-71 54 -71 54 -73 54 C-73.10864945 51.93867858 -73.18588321 49.87568679 -73.25 47.8125 C-73.29640625 46.66394531 -73.3428125 45.51539063 -73.390625 44.33203125 C-72.89178557 40.07693095 -72.16909205 38.90500105 -69 36 C-66.41241446 34.42859853 -63.77300503 33.0161675 -61.08642578 31.62060547 C-55.74587678 28.81641592 -50.61374006 25.65641917 -45.4375 22.5625 C-43.07012018 21.15698033 -40.70097929 19.75443701 -38.33203125 18.3515625 C-34.64891004 16.16976924 -30.96869933 13.98348233 -27.29833984 11.78027344 C-24.31678934 9.99075939 -21.3272657 8.21533281 -18.33181763 6.44918823 C-16.65322018 5.45422705 -14.98361373 4.44414721 -13.31420898 3.43383789 C-12.29528564 2.83563232 -11.2763623 2.23742676 -10.2265625 1.62109375 C-9.33533691 1.0892749 -8.44411133 0.55745605 -7.52587891 0.00952148 C-4.49744885 -1.20085531 -3.06928611 -0.98606459 0 0 Z " fill="#7C0B21" transform="translate(184,112)"/>
</svg>
